<?xml version="1.0" encoding="iso-8859-1"?>
<!-- Generator: Adobe Illustrator 25.4.1, SVG Export Plug-In . SVG Version: 6.00 Build 0)  -->
<svg fill="#EBEBEB" version="1.1" baseProfile="basic" id="Layer_1"
	 xmlns="http://www.w3.org/2000/svg" xmlns:xlink="http://www.w3.org/1999/xlink" x="0px" y="0px" viewBox="0 0 72 72"
	 xml:space="preserve">
<path d="M42.259,52.723c-0.671,0-1.352-0.171-1.977-0.532l-14.959-8.616c-1.896-1.094-2.544-3.517-1.451-5.412
	c1.095-1.895,3.511-2.547,5.413-1.45l14.959,8.616c1.896,1.094,2.544,3.517,1.451,5.412C44.959,52.012,43.628,52.723,42.259,52.723z
	"/>
<path d="M27.391,35.508c-1.484,0-2.912-0.819-3.62-2.236c-0.999-1.998-0.19-4.426,1.808-5.425l15.397-7.809
	c2.002-1.002,4.426-0.186,5.425,1.808c0.999,1.998,0.19,4.426-1.808,5.425l-15.397,7.809C28.615,35.371,27.997,35.508,27.391,35.508
	z"/>
<path d="M48.981,62.023c-5.509,0-9.991-4.482-9.991-9.991s4.483-9.991,9.991-9.991s9.991,4.482,9.991,9.991
	S54.49,62.023,48.981,62.023z M49.003,50.002c-1.119,0-2.029,0.91-2.029,2.029c0,1.119,0.91,2.029,2.029,2.029
	s2.029-0.91,2.029-2.029C51.032,50.913,50.122,50.002,49.003,50.002z"/>
<path d="M21.367,46.005c-5.557,0-10.079-4.521-10.079-10.079s4.522-10.079,10.079-10.079s10.079,4.521,10.079,10.079
	S26.924,46.005,21.367,46.005z M21.411,33.964c-1.106,0-2.007,0.9-2.007,2.006s0.9,2.007,2.007,2.007c1.106,0,2.006-0.9,2.006-2.007
	S22.518,33.964,21.411,33.964z"/>
<path d="M48.731,30.101c-5.531,0-10.032-4.5-10.032-10.032s4.501-10.032,10.032-10.032s10.032,4.5,10.032,10.032
	S54.262,30.101,48.731,30.101z M48.731,18.066c-1.105,0-2.003,0.899-2.003,2.003s0.899,2.003,2.003,2.003s2.003-0.899,2.003-2.003
	S49.836,18.066,48.731,18.066z"/>
</svg>