<svg xmlns="http://www.w3.org/2000/svg" xmlns:xlink="http://www.w3.org/1999/xlink" version="1.1" width="256" height="256" viewBox="0 0 256 256" xml:space="preserve">
<g style="stroke: none; stroke-width: 0; stroke-dasharray: none; stroke-linecap: butt; stroke-linejoin: miter; stroke-miterlimit: 10; fill: none; fill-rule: nonzero; opacity: 1;" transform="translate(1.4065934065934016 1.4065934065934016) scale(2.81 2.81)">
	<path d="M 75.622 39.923 H 51.314 c -1.125 0 -2.154 -0.629 -2.669 -1.629 c -0.514 -1 -0.425 -2.204 0.23 -3.118 L 69.782 6 H 51.314 c -1.657 0 -3 -1.343 -3 -3 s 1.343 -3 3 -3 h 24.308 c 1.125 0 2.154 0.629 2.669 1.629 c 0.514 1 0.425 2.204 -0.23 3.118 L 57.154 33.923 h 18.468 c 1.657 0 3 1.343 3 3 S 77.279 39.923 75.622 39.923 z" style="stroke: none; stroke-width: 1; fill: rgb(255,255,255);" transform=" matrix(1 0 0 1 0 0) " stroke-linecap="round"/>
	
	<path d="M 75.622 78.293 H 51.314 c -1.657 0 -3 -1.343 -3 -3 s 1.343 -3 3 -3 h 24.308 c 1.657 0 3 1.343 3 3 S 77.279 78.293 75.622 78.293 z" style="stroke: none; stroke-width: 1; fill: rgb(255,255,255);" transform=" matrix(1 0 0 1 0 0) " stroke-linecap="round"/>
	
	<path d="M 75.622 90 c -1.657 0 -3 -1.343 -3 -3 V 64.456 c 0 -5.048 -4.106 -9.154 -9.154 -9.154 c -5.047 0 -9.153 4.106 -9.153 9.154 V 87 c 0 1.657 -1.343 3 -3 3 s -3 -1.343 -3 -3 V 64.456 c 0 -8.356 6.798 -15.154 15.153 -15.154 c 8.356 0 15.154 6.798 15.154 15.154 V 87 C 78.622 88.657 77.279 90 75.622 90 z" style="stroke: none; stroke-width: 1; fill: rgb(255,255,255);" transform=" matrix(1 0 0 1 0 0) " stroke-linecap="round"/>
</g>
</svg>
